<svg fill="none"
    height="21"
    viewBox="0 0 18 21"
    width="18"
    xmlns="http://www.w3.org/2000/svg">
    <path
        d="M6.98438 17.0156L15 9L13.5938 7.59375L6.98438 14.1562L4.40625 11.5781L3 12.9844L6.98438 17.0156ZM9.70312 3.28125C9.51562 3.09375 9.28125 3 9 3C8.71875 3 8.48438 3.09375 8.29688 3.28125C8.10938 3.46875 8.01562 3.70312 8.01562 3.98438C8.01562 4.26562 8.10938 4.51562 8.29688 4.73438C8.48438 4.92188 8.71875 5.01562 9 5.01562C9.28125 5.01562 9.51562 4.92188 9.70312 4.73438C9.89062 4.51562 9.98438 4.26562 9.98438 3.98438C9.98438 3.70312 9.89062 3.46875 9.70312 3.28125ZM15.9844 3C16.5156 3 16.9844 3.20312 17.3906 3.60938C17.7969 4.01562 18 4.48438 18 5.01562V18.9844C18 19.5156 17.7969 19.9844 17.3906 20.3906C16.9844 20.7969 16.5156 21 15.9844 21H2.01562C1.48438 21 1.01562 20.7969 0.609375 20.3906C0.203125 19.9844 0 19.5156 0 18.9844V5.01562C0 4.48438 0.203125 4.01562 0.609375 3.60938C1.01562 3.20312 1.48438 3 2.01562 3H6.1875C6.40625 2.40625 6.76562 1.92188 7.26562 1.54688C7.76562 1.17188 8.34375 0.984375 9 0.984375C9.65625 0.984375 10.2344 1.17188 10.7344 1.54688C11.2344 1.92188 11.5938 2.40625 11.8125 3H15.9844Z"
        fill="white" />
</svg>
