<svg fill="none"
    height="20"
    viewBox="0 0 20 20"
    width="20"
    xmlns="http://www.w3.org/2000/svg">
    <path
        d="M3.39181 13.9181C5.69201 12.9825 7.89474 12.5146 10 12.5146C12.1053 12.5146 14.2885 12.9825 16.5497 13.9181C18.8499 14.8148 20 16.0039 20 17.4854V20H0V17.4854C0 16.0039 1.1306 14.8148 3.39181 13.9181ZM13.5088 8.53801C12.5341 9.51267 11.3645 10 10 10C8.63548 10 7.46589 9.51267 6.49123 8.53801C5.51657 7.56335 5.02924 6.39376 5.02924 5.02924C5.02924 3.66472 5.51657 2.49513 6.49123 1.52047C7.46589 0.506823 8.63548 0 10 0C11.3645 0 12.5341 0.506823 13.5088 1.52047C14.4834 2.49513 14.9708 3.66472 14.9708 5.02924C14.9708 6.39376 14.4834 7.56335 13.5088 8.53801Z"
        fill="white" />
</svg>
